<?xml version="1.0" encoding="UTF-8"?>
<svg id="Layer_2" data-name="Layer 2" xmlns="http://www.w3.org/2000/svg" viewBox="0 0 287.32 113.55">
  <defs>
    <style>
      .cls-1 {
        fill: #081f2d;
      }

      .cls-2 {
        fill: #002f87;
      }
    </style>
  </defs>
  <g id="Layer_1-2" data-name="Layer 1">
    <g>
      <g>
        <polygon class="cls-2" points="238.45 90.78 238.45 46.81 230.72 46.81 230.72 99.88 238.45 90.78"/>
        <polygon class="cls-2" points="224.29 77.11 224.29 46.81 216.56 46.81 216.56 86.21 224.29 77.11"/>
        <rect class="cls-2" x="205.51" y="35.31" width="58.16" height="7.38"/>
        <rect class="cls-2" x="205.51" y="11.48" width="58.16" height="7.38"/>
        <polygon class="cls-2" points="192.31 35.31 193.26 35.31 197.56 30.33 271.61 30.33 275.91 35.31 276.86 35.31 277.81 35.31 282.11 30.33 282.11 22.95 187.07 22.95 187.07 30.33 191.37 35.31 192.31 35.31"/>
        <polygon class="cls-2" points="252.61 7.38 216.59 0 216.59 7.38 252.61 7.38 252.61 7.38"/>
        <polygon class="cls-2" points="252.62 104.45 252.62 46.81 244.88 46.81 244.88 113.55 252.62 104.45"/>
        <path class="cls-2" d="M276.82,49.67l4.78,13.41h-9.56l4.78-13.41M276.82,39c-.49,0-.97.27-1.17.82l-9.26,26.01c-.29.81.31,1.65,1.17,1.65h18.53c.86,0,1.45-.85,1.17-1.65l-9.26-26.01c-.2-.55-.68-.82-1.17-.82h0Z"/>
        <path class="cls-2" d="M192.31,49.67l4.78,13.41h-9.56l4.78-13.41M192.31,39c-.49,0-.97.27-1.17.82l-9.26,26.01c-.29.81.31,1.65,1.17,1.65h18.53c.86,0,1.45-.85,1.17-1.65l-9.26-26.01c-.2-.55-.68-.82-1.17-.82h0Z"/>
      </g>
      <g>
        <g>
          <path class="cls-1" d="M5.16,90.44c-.94,0-1.73-.11-2.39-.32-.65-.21-1.19-.51-1.6-.9-.41-.38-.71-.85-.9-1.39s-.28-1.16-.28-1.84.11-1.27.32-1.86c.21-.58.53-1.1.94-1.54.42-.44.94-.8,1.57-1.06s1.36-.39,2.19-.39c1.5,0,2.6.4,3.3,1.2.7.8,1.05,1.88,1.05,3.22v4.87h-4.21ZM3.25,79.93c-.36,0-.66-.13-.9-.38-.24-.25-.37-.56-.37-.93s.12-.67.37-.92c.24-.26.55-.39.9-.39s.68.13.92.38c.24.25.37.56.37.93s-.12.67-.37.92c-.24.26-.55.39-.92.39ZM6.89,85.88c0-.96-.18-1.66-.54-2.09-.36-.43-.87-.64-1.52-.64-.73,0-1.3.24-1.69.73-.4.49-.6,1.11-.6,1.87,0,.91.23,1.59.69,2.03.46.44,1.19.66,2.19.66h1.46v-2.56ZM6.47,79.93c-.37,0-.68-.13-.92-.38s-.37-.56-.37-.93.12-.67.37-.92.55-.39.92-.39.66.13.89.38c.24.25.36.56.36.93s-.12.67-.36.92c-.24.26-.54.39-.89.39Z"/>
          <path class="cls-1" d="M10.39,95.32c-.29,0-.58-.02-.86-.05-.28-.03-.53-.08-.76-.15l.19-2.04c.23.06.47.12.72.16.25.04.53.07.84.07s.61-.04.88-.13c.26-.08.48-.23.65-.44s.31-.49.4-.83c.1-.34.14-.77.14-1.3v-9.24h2.54v9.12c0,.62-.06,1.21-.19,1.79-.13.58-.37,1.09-.72,1.54s-.84.81-1.45,1.08-1.41.4-2.39.4Z"/>
          <path class="cls-1" d="M18.2,76.87h2.54v11.56h1.92v2h-4.46v-13.57Z"/>
          <path class="cls-1" d="M22.38,88.44h7.45c.03-.23.05-.47.07-.72.02-.25.03-.5.03-.74,0-1.22-.28-2.14-.85-2.76-.56-.62-1.54-.93-2.92-.93-.4,0-.78.01-1.14.04-.36.03-.72.06-1.08.12v-1.98c.37-.05.77-.09,1.2-.13.43-.03.85-.05,1.26-.05,1.08,0,2,.12,2.77.36.77.24,1.39.59,1.88,1.06.48.47.83,1.05,1.06,1.75.22.7.34,1.51.34,2.43,0,.23,0,.48-.02.74-.01.26-.03.54-.06.82h1.5v2h-11.49v-2ZM26.94,94.65c-.37,0-.69-.13-.94-.38-.26-.26-.38-.57-.38-.94s.13-.69.38-.94c.26-.26.57-.38.94-.38s.69.13.94.38.38.57.38.94-.13.69-.38.94-.57.38-.94.38Z"/>
          <path class="cls-1" d="M33.58,88.44h2.69v-7.04h2.54v7.04h1.71v2h-6.95v-2ZM35.58,79.93c-.36,0-.66-.13-.9-.38s-.37-.56-.37-.93.12-.67.37-.92.55-.39.9-.39.68.13.92.38c.24.25.37.56.37.93s-.12.67-.37.92c-.24.26-.55.39-.92.39ZM38.77,79.93c-.36,0-.66-.13-.9-.38-.24-.25-.37-.56-.37-.93s.12-.67.37-.92c.24-.26.54-.39.9-.39s.66.13.9.38c.24.25.37.56.37.93s-.12.67-.37.92c-.24.26-.55.39-.9.39Z"/>
          <path class="cls-1" d="M40.23,88.44h2.39v-11.56h2.54v13.57h-4.93v-2Z"/>
          <path class="cls-1" d="M48.43,76.87h2.54v13.57h-2.54v-13.57Z"/>
          <path class="cls-1" d="M56.43,95.29c-.37,0-.73-.01-1.07-.04-.34-.03-.65-.05-.93-.08-.33-.04-.64-.08-.92-.13l.15-2.08c.29.06.61.12.94.17.28.04.6.07.96.11.36.03.72.05,1.1.05,1,0,1.81-.2,2.41-.6.61-.4.91-1.05.91-1.96v-.29h-1.5c-.94,0-1.73-.11-2.39-.32-.65-.21-1.19-.51-1.6-.9-.41-.38-.71-.85-.9-1.4-.19-.55-.28-1.17-.28-1.85,0-.63.1-1.23.3-1.82.2-.58.51-1.1.92-1.54.42-.44.95-.8,1.59-1.07.64-.27,1.4-.4,2.29-.4.58,0,1.11.04,1.59.11.48.07.91.15,1.28.24.42.1.81.21,1.15.33v8.66c0,.67-.11,1.29-.34,1.88-.22.58-.58,1.09-1.06,1.53-.48.44-1.1.78-1.87,1.03-.76.25-1.68.38-2.76.38ZM59.99,83.49c-.14-.06-.31-.12-.5-.17-.17-.04-.36-.08-.59-.11-.22-.04-.47-.06-.74-.06-.73,0-1.3.24-1.69.73-.4.49-.6,1.11-.6,1.87,0,.88.23,1.56.68,2.01.46.46,1.19.68,2.2.68h1.23v-4.95Z"/>
          <path class="cls-1" d="M69.54,95.32c-.29,0-.58-.02-.86-.05-.28-.03-.53-.08-.76-.15l.19-2.04c.23.06.47.12.72.16.25.04.53.07.84.07s.61-.04.88-.13c.26-.08.48-.23.65-.44s.31-.49.4-.83c.1-.34.14-.77.14-1.3v-9.24h2.54v9.12c0,.62-.06,1.21-.19,1.79-.13.58-.37,1.09-.72,1.54s-.84.81-1.45,1.08-1.41.4-2.39.4Z"/>
          <path class="cls-1" d="M77.35,76.87h2.54v11.56h1.92v2h-4.46v-13.57Z"/>
          <path class="cls-1" d="M88.8,90.44c-.69,0-1.27-.04-1.74-.12s-.87-.18-1.19-.32c-.33-.14-.6-.29-.81-.47-.21-.18-.4-.38-.57-.6-.18.45-.51.81-.99,1.09-.48.28-1.17.41-2.07.41h-.29v-2c.36,0,.68-.04.95-.13.28-.08.51-.22.7-.42.19-.2.34-.47.44-.81s.15-.76.15-1.26c0-.62.1-1.2.31-1.76.2-.56.52-1.05.93-1.49.42-.44.94-.78,1.57-1.04.63-.26,1.36-.38,2.19-.38,1.5,0,2.6.4,3.3,1.2.7.8,1.05,1.88,1.05,3.22v2.87h1.62v2h-5.56ZM90.26,85.88c0-.96-.18-1.66-.54-2.09-.36-.43-.86-.64-1.51-.64-.73,0-1.29.24-1.69.73-.4.49-.59,1.11-.59,1.87,0,.91.23,1.59.69,2.03.46.44,1.19.66,2.18.66h1.46v-2.56Z"/>
          <path class="cls-1" d="M94.07,88.44h2.69v-7.04h2.54v7.04h1.89v2h-7.12v-2ZM96.07,79.93c-.36,0-.66-.13-.9-.38-.24-.25-.37-.56-.37-.93s.12-.67.37-.92c.24-.26.55-.39.9-.39s.68.13.92.38c.24.25.37.56.37.93s-.12.67-.37.92c-.24.26-.55.39-.92.39ZM97.67,77.2c-.33,0-.61-.12-.84-.36-.22-.24-.34-.52-.34-.86s.11-.62.34-.86c.22-.24.5-.36.84-.36s.61.12.84.36c.22.24.34.52.34.86s-.11.62-.34.86c-.22.24-.5.36-.84.36ZM99.26,79.93c-.36,0-.66-.13-.9-.38-.24-.25-.37-.56-.37-.93s.12-.67.37-.92c.24-.26.55-.39.9-.39s.66.13.9.38c.24.25.37.56.37.93s-.12.67-.37.92c-.24.26-.55.39-.9.39Z"/>
          <path class="cls-1" d="M100.9,88.44h2.69v-7.04h2.54v7.04h1.71v2h-6.95v-2ZM102.9,79.93c-.36,0-.66-.13-.9-.38-.24-.25-.37-.56-.37-.93s.12-.67.37-.92c.24-.26.55-.39.9-.39s.68.13.92.38c.24.25.37.56.37.93s-.12.67-.37.92c-.24.26-.55.39-.92.39ZM106.1,79.93c-.36,0-.66-.13-.9-.38-.24-.25-.37-.56-.37-.93s.12-.67.37-.92c.24-.26.55-.39.9-.39s.66.13.9.38c.24.25.37.56.37.93s-.12.67-.37.92c-.24.26-.55.39-.9.39Z"/>
          <path class="cls-1" d="M107.56,88.44h.96c.31,0,.57-.04.79-.11.22-.07.4-.2.54-.38.14-.18.24-.42.31-.73s.1-.7.1-1.17v-3.5h2.54v3.56c0,.44.02.81.05,1.13.03.31.09.57.18.77.09.2.22.35.39.44.17.1.41.14.7.14.5,0,.88-.18,1.15-.53.26-.35.39-1,.39-1.93v-4.35h2.44v4.83c0,.39.03.7.11.93.07.24.19.42.37.56.17.13.4.22.69.27.29.05.66.07,1.11.07h.5c.05-.38.09-.79.11-1.22.02-.43.03-.79.03-1.09,0-.96-.05-1.88-.15-2.75-.1-.87-.24-1.67-.4-2.41l2.48-.35c.18.77.33,1.61.44,2.52.11.91.17,1.85.17,2.81,0,.71-.02,1.46-.07,2.25-.05.8-.12,1.54-.22,2.23h-3.17c-.5,0-.94-.02-1.33-.06-.39-.04-.72-.11-1-.21-.28-.1-.52-.24-.72-.4s-.37-.38-.51-.65c-.19.41-.53.76-1.02,1.05-.49.29-1.12.43-1.89.43-.62,0-1.16-.13-1.63-.4-.47-.27-.78-.63-.93-1.1-.19.45-.49.79-.89,1.01-.4.22-.96.34-1.66.34h-.94v-2Z"/>
          <path class="cls-1" d="M130.8,86.99h-2.58l-2.75-9.91,2.52-.35,2.81,10.26ZM126.26,90.44v-2h5.95v-11.56h2.54v13.57h-8.49Z"/>
          <path class="cls-1" d="M138,76.87h2.54v13.57h-2.54v-13.57Z"/>
          <path class="cls-1" d="M152.25,90.44c-.94,0-1.73-.11-2.39-.32-.65-.21-1.19-.51-1.6-.9-.41-.38-.71-.85-.9-1.4-.19-.55-.28-1.17-.28-1.85,0-.63.1-1.23.3-1.82.2-.58.51-1.1.92-1.54.42-.44.95-.8,1.59-1.07s1.4-.4,2.29-.4c.58,0,1.11.04,1.59.11.48.07.91.15,1.28.24.42.1.81.21,1.15.33v6.62h1.89v2h-5.85ZM150.35,79.93c-.36,0-.66-.13-.9-.38-.24-.25-.37-.56-.37-.93s.12-.67.37-.92c.24-.26.54-.39.9-.39s.68.13.92.38.37.56.37.93-.12.67-.37.92c-.24.26-.55.39-.92.39ZM153.76,83.49c-.14-.06-.31-.12-.5-.17-.17-.04-.36-.08-.59-.11-.22-.04-.47-.06-.74-.06-.73,0-1.3.24-1.69.73-.4.49-.6,1.11-.6,1.87,0,.88.23,1.56.68,2.01s1.19.68,2.2.68h1.23v-4.95ZM153.56,79.93c-.37,0-.68-.13-.92-.38-.24-.25-.37-.56-.37-.93s.12-.67.37-.92c.24-.26.55-.39.92-.39s.66.13.9.38.36.56.36.93-.12.67-.36.92c-.24.26-.54.39-.9.39Z"/>
          <path class="cls-1" d="M165.09,90.44c-.69,0-1.27-.04-1.74-.12s-.87-.18-1.19-.32c-.33-.14-.6-.29-.81-.47-.21-.18-.4-.38-.57-.6-.18.45-.51.81-.99,1.09-.48.28-1.17.41-2.07.41h-.29v-2c.36,0,.68-.04.95-.13.28-.08.51-.22.7-.42.19-.2.34-.47.44-.81s.15-.76.15-1.26c0-.62.1-1.2.31-1.76.2-.56.52-1.05.93-1.49.42-.44.94-.78,1.57-1.04.63-.26,1.36-.38,2.19-.38,1.5,0,2.6.4,3.3,1.2.7.8,1.05,1.88,1.05,3.22v2.87h1.62v2h-5.56ZM166.55,85.88c0-.96-.18-1.66-.54-2.09-.36-.43-.86-.64-1.51-.64-.73,0-1.29.24-1.69.73-.4.49-.59,1.11-.59,1.87,0,.91.23,1.59.69,2.03.46.44,1.19.66,2.18.66h1.46v-2.56Z"/>
          <path class="cls-1" d="M170.36,88.44h5.71c-.06-1.5-.48-2.69-1.25-3.57-.77-.88-1.92-1.5-3.46-1.86v-1.87l7.62-4.77v2.52l-4.7,2.83c.6.27,1.15.6,1.65.99.5.39.94.86,1.31,1.4.37.54.67,1.16.88,1.88.22.71.35,1.53.4,2.45h1.56v2h-9.74v-2Z"/>
          <path class="cls-1" d="M179.81,88.44h7.45c.03-.23.05-.47.07-.72s.03-.5.03-.74c0-1.22-.28-2.14-.85-2.76-.57-.62-1.54-.93-2.93-.93-.4,0-.78.01-1.14.04-.36.03-.72.06-1.08.12v-1.98c.37-.05.77-.09,1.2-.13.43-.03.85-.05,1.26-.05,1.08,0,2,.12,2.77.36.77.24,1.4.59,1.88,1.06.48.47.84,1.05,1.07,1.75.23.7.34,1.51.34,2.43,0,.23,0,.48-.02.74-.01.26-.03.54-.06.82h1.5v2h-11.51v-2Z"/>
          <path class="cls-1" d="M191.01,90.44v-2h1.1c.17,0,.31,0,.44.02s.24.03.35.06l.29.06c-.36-.26-.63-.61-.81-1.05-.18-.44-.27-1.01-.27-1.7,0-.62.1-1.2.31-1.76s.52-1.05.93-1.49c.42-.44.94-.78,1.57-1.04.63-.26,1.36-.38,2.19-.38,1.5,0,2.6.4,3.3,1.2.7.8,1.05,1.88,1.05,3.22v4.87h-10.45ZM198.97,85.88c0-.96-.18-1.66-.54-2.09-.36-.43-.86-.64-1.51-.64-.73,0-1.29.24-1.69.73-.4.49-.59,1.11-.59,1.87,0,.91.23,1.59.69,2.03.46.44,1.19.66,2.18.66h1.46v-2.56Z"/>
        </g>
        <g>
          <path class="cls-1" d="M0,113.35v-1.83h1.59v-8.39H0v-1.83h5.48v1.83h-1.61v8.39h1.61v1.83H0Z"/>
          <path class="cls-1" d="M6.81,113.35v-9.02h2.21v1.5h.09c.18-.48.48-.89.87-1.22s.95-.49,1.65-.49c.93,0,1.65.31,2.14.92.49.61.74,1.48.74,2.61v5.7h-2.21v-5.48c0-.64-.12-1.13-.35-1.45-.23-.32-.61-.48-1.14-.48-.23,0-.45.03-.67.1s-.4.15-.57.28c-.17.12-.3.27-.41.45s-.16.39-.16.63v5.96h-2.21Z"/>
          <path class="cls-1" d="M17.89,113.35l-3.01-9.02h2.18l1.26,3.89.88,3.21h.12l.88-3.21,1.23-3.89h2.11l-3.02,9.02h-2.63Z"/>
          <path class="cls-1" d="M27.65,113.55c-.67,0-1.26-.11-1.79-.34-.52-.22-.97-.54-1.33-.95-.36-.41-.64-.9-.84-1.48-.2-.58-.29-1.24-.29-1.96s.1-1.36.29-1.94c.19-.58.46-1.07.82-1.48s.79-.73,1.31-.95c.52-.22,1.11-.34,1.76-.34.7,0,1.31.12,1.83.36.52.24.94.57,1.28.98.33.41.58.9.75,1.44.17.55.25,1.13.25,1.75v.73h-5.99v.22c0,.65.18,1.17.55,1.57.37.39.92.59,1.64.59.55,0,1-.11,1.36-.34.35-.23.66-.52.94-.87l1.19,1.33c-.37.52-.87.93-1.51,1.22-.64.29-1.38.44-2.22.44ZM27.62,105.78c-.59,0-1.05.2-1.4.59-.35.39-.52.9-.52,1.52v.14h3.7v-.16c0-.62-.15-1.13-.46-1.51-.31-.39-.75-.58-1.32-.58Z"/>
          <path class="cls-1" d="M35.74,113.55c-.86,0-1.59-.15-2.18-.44-.59-.29-1.11-.7-1.55-1.22l1.35-1.31c.33.38.7.68,1.1.9.4.22.86.33,1.37.33s.91-.09,1.15-.28c.24-.18.35-.44.35-.76,0-.26-.08-.47-.25-.63-.17-.16-.45-.26-.86-.32l-.9-.12c-.98-.13-1.72-.41-2.24-.84-.51-.43-.77-1.06-.77-1.89,0-.44.08-.83.24-1.18.16-.35.39-.65.69-.9.3-.25.66-.44,1.08-.57.42-.13.89-.2,1.41-.2.44,0,.83.03,1.17.09.34.06.65.16.92.28s.53.27.76.45c.23.18.45.38.67.6l-1.3,1.3c-.27-.28-.58-.51-.95-.69-.37-.18-.77-.28-1.21-.28-.48,0-.83.09-1.04.26-.21.17-.32.4-.32.67,0,.3.09.53.27.68.18.16.48.27.91.34l.92.12c1.95.28,2.92,1.16,2.92,2.66,0,.44-.09.84-.27,1.2s-.43.67-.75.93c-.32.26-.71.46-1.17.6s-.96.22-1.53.22Z"/>
          <path class="cls-1" d="M43.22,113.35c-.76,0-1.34-.2-1.74-.59-.4-.4-.6-.96-.6-1.7v-4.94h-1.33v-1.78h.69c.33,0,.56-.08.68-.23.12-.15.18-.39.18-.7v-1.54h1.99v2.47h1.85v1.78h-1.85v5.46h1.71v1.78h-1.59Z"/>
          <path class="cls-1" d="M46,113.35v-9.02h2.21v1.5h.09c.17-.47.45-.87.83-1.21s.91-.5,1.59-.5c.62,0,1.16.15,1.61.45.45.3.78.75,1,1.36h.03c.16-.51.48-.93.96-1.29.48-.35,1.08-.53,1.8-.53.89,0,1.57.31,2.05.92.48.61.72,1.48.72,2.61v5.7h-2.21v-5.48c0-1.29-.48-1.94-1.45-1.94-.22,0-.43.03-.63.1s-.38.15-.54.28c-.16.12-.28.27-.37.45-.09.18-.14.39-.14.63v5.96h-2.21v-5.48c0-1.29-.48-1.94-1.45-1.94-.21,0-.41.03-.61.1s-.38.15-.54.28c-.16.12-.28.27-.38.45s-.15.39-.15.63v5.96h-2.21Z"/>
          <path class="cls-1" d="M64.12,113.55c-.67,0-1.26-.11-1.79-.34-.52-.22-.97-.54-1.33-.95-.36-.41-.64-.9-.84-1.48-.2-.58-.29-1.24-.29-1.96s.1-1.36.29-1.94c.19-.58.46-1.07.82-1.48s.79-.73,1.31-.95c.52-.22,1.11-.34,1.76-.34.7,0,1.31.12,1.83.36.52.24.94.57,1.28.98.33.41.58.9.75,1.44.17.55.25,1.13.25,1.75v.73h-5.99v.22c0,.65.18,1.17.55,1.57.37.39.92.59,1.64.59.55,0,1-.11,1.36-.34.35-.23.66-.52.94-.87l1.19,1.33c-.37.52-.87.93-1.51,1.22-.64.29-1.38.44-2.22.44ZM64.08,105.78c-.59,0-1.05.2-1.4.59-.35.39-.52.9-.52,1.52v.14h3.7v-.16c0-.62-.15-1.13-.46-1.51-.31-.39-.75-.58-1.32-.58Z"/>
          <path class="cls-1" d="M69.25,113.35v-9.02h2.21v1.5h.09c.18-.48.48-.89.87-1.22s.95-.49,1.65-.49c.93,0,1.65.31,2.14.92s.74,1.48.74,2.61v5.7h-2.21v-5.48c0-.64-.12-1.13-.35-1.45s-.61-.48-1.14-.48c-.23,0-.45.03-.67.1s-.4.15-.57.28c-.17.12-.3.27-.41.45s-.16.39-.16.63v5.96h-2.21Z"/>
          <path class="cls-1" d="M81.36,113.35c-.76,0-1.34-.2-1.74-.59-.4-.4-.6-.96-.6-1.7v-4.94h-1.33v-1.78h.69c.33,0,.56-.08.68-.23.12-.15.18-.39.18-.7v-1.54h1.99v2.47h1.85v1.78h-1.85v5.46h1.71v1.78h-1.59Z"/>
          <path class="cls-1" d="M93.98,113.35c-.48,0-.87-.14-1.15-.42-.28-.28-.46-.66-.53-1.13h-.1c-.15.59-.46,1.03-.92,1.32s-1.03.44-1.71.44c-.92,0-1.63-.24-2.12-.72-.49-.48-.74-1.12-.74-1.93,0-.93.33-1.62,1-2.07s1.62-.68,2.85-.68h1.54v-.66c0-.51-.13-.9-.4-1.17-.26-.28-.69-.41-1.28-.41-.52,0-.94.11-1.25.34-.32.22-.58.49-.8.8l-1.31-1.18c.33-.52.78-.94,1.33-1.26.55-.32,1.28-.48,2.19-.48,1.22,0,2.15.28,2.78.83.63.55.95,1.34.95,2.38v4.24h.9v1.78h-1.23ZM90.32,111.95c.49,0,.92-.11,1.26-.33.35-.22.52-.54.52-.96v-1.18h-1.42c-1.15,0-1.73.37-1.73,1.1v.29c0,.37.12.64.35.81.24.18.57.27,1.01.27Z"/>
          <path class="cls-1" d="M96.14,113.35v-9.02h2.21v1.5h.09c.18-.48.47-.89.87-1.22.4-.33.95-.49,1.65-.49.93,0,1.65.31,2.14.92s.74,1.48.74,2.61v5.7h-2.21v-5.48c0-.64-.12-1.13-.35-1.45s-.61-.48-1.14-.48c-.23,0-.45.03-.67.1-.21.06-.4.15-.57.28s-.3.27-.41.45c-.1.18-.15.39-.15.63v5.96h-2.21Z"/>
          <path class="cls-1" d="M111.03,111.84h-.09c-.16.52-.47.93-.92,1.24-.45.31-.97.47-1.57.47-1.14,0-2.01-.41-2.62-1.23-.6-.82-.91-1.99-.91-3.51s.3-2.67.91-3.48c.6-.81,1.48-1.22,2.62-1.22.6,0,1.12.15,1.57.46.45.31.75.72.92,1.24h.09v-5.25h2.21v12.78h-2.21v-1.5ZM109.17,111.72c.53,0,.97-.13,1.33-.38s.54-.62.54-1.09v-2.87c0-.44-.18-.79-.54-1.05s-.8-.4-1.33-.4c-.58,0-1.04.19-1.39.58-.35.39-.53.9-.53,1.55v1.56c0,.64.18,1.16.53,1.54.35.38.81.57,1.39.57Z"/>
          <path class="cls-1" d="M123.02,103.31v10.04h-2.28v-10.04h-3.42v-2.02h9.12v2.02h-3.42Z"/>
          <path class="cls-1" d="M126.52,113.35v-9.02h2.21v1.87h.09c.06-.24.15-.48.27-.7.12-.23.28-.42.47-.6.2-.17.43-.31.7-.41.27-.1.58-.16.94-.16h.48v2.09h-.69c-.75,0-1.31.11-1.69.33-.38.22-.57.58-.57,1.07v5.53h-2.21Z"/>
          <path class="cls-1" d="M138.89,113.35c-.48,0-.87-.14-1.15-.42-.28-.28-.46-.66-.53-1.13h-.1c-.15.59-.46,1.03-.92,1.32s-1.03.44-1.71.44c-.92,0-1.63-.24-2.12-.72-.49-.48-.74-1.12-.74-1.93,0-.93.33-1.62,1-2.07.67-.45,1.62-.68,2.85-.68h1.54v-.66c0-.51-.13-.9-.4-1.17-.26-.28-.69-.41-1.28-.41-.52,0-.94.11-1.25.34-.32.22-.58.49-.8.8l-1.31-1.18c.33-.52.78-.94,1.33-1.26.55-.32,1.28-.48,2.19-.48,1.22,0,2.15.28,2.78.83.63.55.95,1.34.95,2.38v4.24h.9v1.78h-1.23ZM135.23,111.95c.49,0,.92-.11,1.26-.33.35-.22.52-.54.52-.96v-1.18h-1.42c-1.15,0-1.73.37-1.73,1.1v.29c0,.37.12.64.35.81.24.18.57.27,1.01.27Z"/>
          <path class="cls-1" d="M146.65,111.84h-.09c-.16.52-.47.93-.92,1.24-.45.31-.97.47-1.57.47-1.14,0-2.01-.41-2.62-1.23-.6-.82-.91-1.99-.91-3.51s.3-2.67.91-3.48c.6-.81,1.48-1.22,2.62-1.22.6,0,1.12.15,1.57.46s.75.72.92,1.24h.09v-5.25h2.21v12.78h-2.21v-1.5ZM144.78,111.72c.53,0,.97-.13,1.33-.38s.54-.62.54-1.09v-2.87c0-.44-.18-.79-.54-1.05s-.8-.4-1.33-.4c-.58,0-1.04.19-1.39.58-.35.39-.53.9-.53,1.55v1.56c0,.64.18,1.16.53,1.54.35.38.81.57,1.39.57Z"/>
          <path class="cls-1" d="M154.2,113.55c-.67,0-1.26-.11-1.79-.34s-.97-.54-1.33-.95c-.36-.41-.64-.9-.84-1.48-.2-.58-.29-1.24-.29-1.96s.09-1.36.29-1.94c.19-.58.46-1.07.82-1.48.36-.41.79-.73,1.31-.95.52-.22,1.11-.34,1.76-.34.7,0,1.31.12,1.83.36.52.24.94.57,1.28.98.33.41.58.9.75,1.44.17.55.25,1.13.25,1.75v.73h-5.99v.22c0,.65.18,1.17.55,1.57.37.39.92.59,1.64.59.55,0,1-.11,1.36-.34s.67-.52.94-.87l1.19,1.33c-.37.52-.87.93-1.51,1.22s-1.38.44-2.22.44ZM154.16,105.78c-.59,0-1.05.2-1.4.59-.35.39-.52.9-.52,1.52v.14h3.7v-.16c0-.62-.15-1.13-.46-1.51-.31-.39-.75-.58-1.32-.58Z"/>
          <path class="cls-1" d="M167.36,113.55c-.79,0-1.51-.13-2.15-.39-.64-.26-1.19-.65-1.64-1.17-.46-.52-.8-1.16-1.04-1.93s-.36-1.66-.36-2.67.12-1.91.36-2.7.59-1.45,1.04-1.99,1-.94,1.64-1.22c.64-.28,1.36-.41,2.15-.41,1.08,0,1.98.23,2.69.69.71.46,1.28,1.16,1.71,2.09l-1.95,1.04c-.17-.54-.46-.98-.85-1.3-.39-.33-.93-.49-1.61-.49-.85,0-1.53.29-2.03.86-.5.58-.75,1.38-.75,2.42v1.9c0,1.05.25,1.85.75,2.41.5.56,1.18.84,2.03.84.68,0,1.24-.18,1.67-.55.43-.37.75-.82.94-1.36l1.85,1.09c-.44.9-1.02,1.6-1.74,2.1s-1.63.75-2.71.75Z"/>
          <path class="cls-1" d="M176.34,113.55c-.64,0-1.22-.11-1.74-.33-.51-.22-.95-.54-1.31-.95-.36-.41-.64-.91-.84-1.49-.2-.58-.29-1.24-.29-1.96s.1-1.38.29-1.95c.2-.58.48-1.07.84-1.48.36-.41.8-.72,1.31-.94.51-.22,1.09-.33,1.74-.33s1.23.11,1.74.33c.52.22.96.53,1.32.94.36.41.64.9.84,1.48.2.58.29,1.23.29,1.95s-.1,1.38-.29,1.96c-.2.58-.48,1.08-.84,1.49-.36.41-.8.73-1.32.95-.52.22-1.1.33-1.74.33ZM176.34,111.78c.59,0,1.05-.18,1.38-.54.33-.36.5-.88.5-1.57v-1.68c0-.68-.17-1.2-.5-1.56-.33-.36-.79-.53-1.38-.53s-1.03.18-1.36.53c-.33.36-.5.88-.5,1.56v1.68c0,.69.17,1.22.5,1.57.33.36.79.54,1.36.54Z"/>
          <path class="cls-1" d="M187.01,111.84h-.09c-.08.23-.19.45-.32.65-.13.2-.3.38-.5.54-.2.16-.44.29-.73.38-.28.09-.61.14-.98.14-.93,0-1.65-.3-2.14-.92-.49-.61-.74-1.48-.74-2.61v-5.7h2.21v5.48c0,.62.12,1.1.36,1.42s.63.49,1.16.49c.22,0,.43-.03.65-.09s.4-.15.56-.27c.16-.12.29-.27.4-.45.1-.18.16-.39.16-.63v-5.96h2.21v9.02h-2.21v-1.5Z"/>
          <path class="cls-1" d="M190.06,113.35v-9.02h2.21v1.87h.09c.06-.24.15-.48.27-.7.12-.23.28-.42.47-.6.2-.17.43-.31.7-.41.27-.1.58-.16.94-.16h.48v2.09h-.69c-.75,0-1.31.11-1.69.33-.38.22-.57.58-.57,1.07v5.53h-2.21Z"/>
          <path class="cls-1" d="M199.73,113.35c-.76,0-1.34-.2-1.74-.59-.4-.4-.6-.96-.6-1.7v-4.94h-1.33v-1.78h.69c.33,0,.56-.08.68-.23.12-.15.18-.39.18-.7v-1.54h1.99v2.47h1.85v1.78h-1.85v5.46h1.71v1.78h-1.59Z"/>
        </g>
      </g>
    </g>
  </g>
</svg>